<svg xmlns="http://www.w3.org/2000/svg" width="1104" height="594" viewBox="0 0 1104 594">
<rect width="100%" height="100%" rx="8" fill="#11111b"/>
<g transform="translate(12,12)" font-family="SFMono-Regular,Menlo,Consolas,monospace" font-size="15">
<rect x="0.0" y="0.0" width="99.0" height="19.0" fill="#00cdcd"/>
<text x="0.0" y="14.0" fill="#000000" font-weight="bold" xml:space="preserve" textLength="99.0" lengthAdjust="spacingAndGlyphs"> rustClean </text>
<text x="99.0" y="14.0" fill="#cdd6f4" xml:space="preserve" textLength="981.0" lengthAdjust="spacingAndGlyphs"> ~/demo  │  25.6 GiB (apparent)  │  120 files  │  sort: size                                                 </text>
<rect x="0.0" y="19.0" width="90.0" height="19.0" fill="#005faf"/>
<text x="0.0" y="33.0" fill="#ffffff" font-weight="bold" xml:space="preserve" textLength="90.0" lengthAdjust="spacingAndGlyphs">Downloads/</text>
<rect x="90.0" y="19.0" width="315.0" height="19.0" fill="#005faf"/>
<rect x="405.0" y="19.0" width="72.0" height="19.0" fill="#af5f00"/>
<text x="405.0" y="33.0" fill="#ffffff" font-weight="bold" xml:space="preserve" textLength="72.0" lengthAdjust="spacingAndGlyphs">Library/</text>
<rect x="477.0" y="19.0" width="216.0" height="19.0" fill="#af5f00"/>
<rect x="693.0" y="19.0" width="81.0" height="19.0" fill="#00875f"/>
<text x="693.0" y="33.0" fill="#ffffff" font-weight="bold" xml:space="preserve" textLength="81.0" lengthAdjust="spacingAndGlyphs">Projects/</text>
<rect x="774.0" y="19.0" width="117.0" height="19.0" fill="#00875f"/>
<rect x="891.0" y="19.0" width="63.0" height="19.0" fill="#870087"/>
<text x="891.0" y="33.0" fill="#ffffff" font-weight="bold" xml:space="preserve" textLength="63.0" lengthAdjust="spacingAndGlyphs">Movies/</text>
<rect x="954.0" y="19.0" width="126.0" height="19.0" fill="#870087"/>
<rect x="0.0" y="38.0" width="405.0" height="19.0" fill="#005faf"/>
<text x="0.0" y="52.0" fill="#ffffff" xml:space="preserve" textLength="405.0" lengthAdjust="spacingAndGlyphs">9.7 GiB · 37.7%                              </text>
<rect x="405.0" y="38.0" width="288.0" height="19.0" fill="#af5f00"/>
<text x="405.0" y="52.0" fill="#ffffff" xml:space="preserve" textLength="288.0" lengthAdjust="spacingAndGlyphs">6.7 GiB · 26.1%                 </text>
<rect x="693.0" y="38.0" width="198.0" height="19.0" fill="#00875f"/>
<text x="693.0" y="52.0" fill="#ffffff" xml:space="preserve" textLength="198.0" lengthAdjust="spacingAndGlyphs">3.6 GiB · 13.9%       </text>
<rect x="891.0" y="38.0" width="189.0" height="19.0" fill="#870087"/>
<text x="891.0" y="52.0" fill="#ffffff" xml:space="preserve" textLength="189.0" lengthAdjust="spacingAndGlyphs">3.2 GiB · 12.5%      </text>
<rect x="0.0" y="57.0" width="405.0" height="19.0" fill="#005faf"/>
<rect x="405.0" y="57.0" width="288.0" height="19.0" fill="#af5f00"/>
<rect x="693.0" y="57.0" width="198.0" height="19.0" fill="#00875f"/>
<rect x="891.0" y="57.0" width="189.0" height="19.0" fill="#870087"/>
<rect x="0.0" y="76.0" width="405.0" height="19.0" fill="#005faf"/>
<rect x="405.0" y="76.0" width="288.0" height="19.0" fill="#af5f00"/>
<rect x="693.0" y="76.0" width="198.0" height="19.0" fill="#00875f"/>
<rect x="891.0" y="76.0" width="189.0" height="19.0" fill="#870087"/>
<rect x="0.0" y="95.0" width="405.0" height="19.0" fill="#005faf"/>
<rect x="405.0" y="95.0" width="288.0" height="19.0" fill="#af5f00"/>
<rect x="693.0" y="95.0" width="198.0" height="19.0" fill="#00875f"/>
<rect x="891.0" y="95.0" width="189.0" height="19.0" fill="#870087"/>
<rect x="0.0" y="114.0" width="405.0" height="19.0" fill="#005faf"/>
<rect x="405.0" y="114.0" width="288.0" height="19.0" fill="#af5f00"/>
<rect x="693.0" y="114.0" width="198.0" height="19.0" fill="#00875f"/>
<rect x="891.0" y="114.0" width="189.0" height="19.0" fill="#870087"/>
<rect x="0.0" y="133.0" width="405.0" height="19.0" fill="#005faf"/>
<rect x="405.0" y="133.0" width="288.0" height="19.0" fill="#af5f00"/>
<rect x="693.0" y="133.0" width="198.0" height="19.0" fill="#00875f"/>
<rect x="891.0" y="133.0" width="189.0" height="19.0" fill="#870087"/>
<rect x="0.0" y="152.0" width="405.0" height="19.0" fill="#005faf"/>
<rect x="405.0" y="152.0" width="288.0" height="19.0" fill="#af5f00"/>
<rect x="693.0" y="152.0" width="198.0" height="19.0" fill="#00875f"/>
<rect x="891.0" y="152.0" width="189.0" height="19.0" fill="#870087"/>
<rect x="0.0" y="171.0" width="405.0" height="19.0" fill="#005faf"/>
<rect x="405.0" y="171.0" width="288.0" height="19.0" fill="#af5f00"/>
<rect x="693.0" y="171.0" width="198.0" height="19.0" fill="#00875f"/>
<rect x="891.0" y="171.0" width="189.0" height="19.0" fill="#870087"/>
<rect x="0.0" y="190.0" width="405.0" height="19.0" fill="#005faf"/>
<rect x="405.0" y="190.0" width="288.0" height="19.0" fill="#af5f00"/>
<rect x="693.0" y="190.0" width="198.0" height="19.0" fill="#00875f"/>
<rect x="891.0" y="190.0" width="189.0" height="19.0" fill="#870087"/>
<rect x="0.0" y="209.0" width="405.0" height="19.0" fill="#005faf"/>
<rect x="405.0" y="209.0" width="288.0" height="19.0" fill="#af5f00"/>
<rect x="693.0" y="209.0" width="198.0" height="19.0" fill="#00875f"/>
<rect x="891.0" y="209.0" width="189.0" height="19.0" fill="#870087"/>
<rect x="0.0" y="228.0" width="405.0" height="19.0" fill="#005faf"/>
<rect x="405.0" y="228.0" width="288.0" height="19.0" fill="#af5f00"/>
<rect x="693.0" y="228.0" width="198.0" height="19.0" fill="#00875f"/>
<rect x="891.0" y="228.0" width="189.0" height="19.0" fill="#870087"/>
<rect x="0.0" y="247.0" width="405.0" height="19.0" fill="#005faf"/>
<rect x="405.0" y="247.0" width="288.0" height="19.0" fill="#af5f00"/>
<rect x="693.0" y="247.0" width="198.0" height="19.0" fill="#00875f"/>
<rect x="891.0" y="247.0" width="189.0" height="19.0" fill="#870087"/>
<rect x="0.0" y="266.0" width="405.0" height="19.0" fill="#005faf"/>
<rect x="405.0" y="266.0" width="288.0" height="19.0" fill="#af5f00"/>
<rect x="693.0" y="266.0" width="198.0" height="19.0" fill="#00875f"/>
<rect x="891.0" y="266.0" width="189.0" height="19.0" fill="#870087"/>
<rect x="0.0" y="285.0" width="405.0" height="19.0" fill="#005faf"/>
<rect x="405.0" y="285.0" width="288.0" height="19.0" fill="#af5f00"/>
<rect x="693.0" y="285.0" width="198.0" height="19.0" fill="#00875f"/>
<rect x="891.0" y="285.0" width="189.0" height="19.0" fill="#870087"/>
<rect x="0.0" y="304.0" width="405.0" height="19.0" fill="#005faf"/>
<rect x="405.0" y="304.0" width="288.0" height="19.0" fill="#af5f00"/>
<rect x="693.0" y="304.0" width="198.0" height="19.0" fill="#00875f"/>
<rect x="891.0" y="304.0" width="189.0" height="19.0" fill="#870087"/>
<rect x="0.0" y="323.0" width="405.0" height="19.0" fill="#005faf"/>
<rect x="405.0" y="323.0" width="288.0" height="19.0" fill="#af5f00"/>
<rect x="693.0" y="323.0" width="198.0" height="19.0" fill="#00875f"/>
<rect x="891.0" y="323.0" width="189.0" height="19.0" fill="#870087"/>
<rect x="0.0" y="342.0" width="405.0" height="19.0" fill="#005faf"/>
<rect x="405.0" y="342.0" width="288.0" height="19.0" fill="#af5f00"/>
<rect x="693.0" y="342.0" width="198.0" height="19.0" fill="#00875f"/>
<rect x="891.0" y="342.0" width="189.0" height="19.0" fill="#870087"/>
<rect x="0.0" y="361.0" width="405.0" height="19.0" fill="#005faf"/>
<rect x="405.0" y="361.0" width="288.0" height="19.0" fill="#af5f00"/>
<rect x="693.0" y="361.0" width="198.0" height="19.0" fill="#00875f"/>
<rect x="891.0" y="361.0" width="189.0" height="19.0" fill="#870087"/>
<rect x="0.0" y="380.0" width="405.0" height="19.0" fill="#005faf"/>
<rect x="405.0" y="380.0" width="288.0" height="19.0" fill="#af5f00"/>
<rect x="693.0" y="380.0" width="90.0" height="19.0" fill="#0087af"/>
<text x="693.0" y="394.0" fill="#ffffff" font-weight="bold" xml:space="preserve" textLength="90.0" lengthAdjust="spacingAndGlyphs">Documents/</text>
<rect x="783.0" y="380.0" width="135.0" height="19.0" fill="#0087af"/>
<rect x="918.0" y="380.0" width="54.0" height="19.0" fill="#af0000"/>
<text x="918.0" y="394.0" fill="#ffffff" font-weight="bold" xml:space="preserve" textLength="54.0" lengthAdjust="spacingAndGlyphs">Music/</text>
<rect x="972.0" y="380.0" width="90.0" height="19.0" fill="#af0000"/>
<rect x="1062.0" y="380.0" width="18.0" height="19.0" fill="#ffffff"/>
<text x="1062.0" y="394.0" fill="#000000" font-weight="bold" xml:space="preserve" textLength="18.0" lengthAdjust="spacingAndGlyphs">P…</text>
<rect x="0.0" y="399.0" width="405.0" height="19.0" fill="#005faf"/>
<rect x="405.0" y="399.0" width="288.0" height="19.0" fill="#af5f00"/>
<rect x="693.0" y="399.0" width="225.0" height="19.0" fill="#0087af"/>
<text x="693.0" y="413.0" fill="#ffffff" xml:space="preserve" textLength="225.0" lengthAdjust="spacingAndGlyphs">1.5 GiB · 5.7%           </text>
<rect x="918.0" y="399.0" width="144.0" height="19.0" fill="#af0000"/>
<text x="918.0" y="413.0" fill="#ffffff" xml:space="preserve" textLength="144.0" lengthAdjust="spacingAndGlyphs">950.0 MiB · 3.6%</text>
<rect x="1062.0" y="399.0" width="18.0" height="19.0" fill="#ffffff"/>
<text x="1062.0" y="413.0" fill="#000000" xml:space="preserve" textLength="18.0" lengthAdjust="spacingAndGlyphs">1…</text>
<rect x="0.0" y="418.0" width="405.0" height="19.0" fill="#005faf"/>
<rect x="405.0" y="418.0" width="288.0" height="19.0" fill="#af5f00"/>
<rect x="693.0" y="418.0" width="225.0" height="19.0" fill="#0087af"/>
<rect x="918.0" y="418.0" width="144.0" height="19.0" fill="#af0000"/>
<rect x="1062.0" y="418.0" width="18.0" height="19.0" fill="#ffffff"/>
<rect x="0.0" y="437.0" width="405.0" height="19.0" fill="#005faf"/>
<rect x="405.0" y="437.0" width="288.0" height="19.0" fill="#af5f00"/>
<rect x="693.0" y="437.0" width="225.0" height="19.0" fill="#0087af"/>
<rect x="918.0" y="437.0" width="144.0" height="19.0" fill="#af0000"/>
<rect x="1062.0" y="437.0" width="18.0" height="19.0" fill="#ffffff"/>
<rect x="0.0" y="456.0" width="405.0" height="19.0" fill="#005faf"/>
<rect x="405.0" y="456.0" width="288.0" height="19.0" fill="#af5f00"/>
<rect x="693.0" y="456.0" width="225.0" height="19.0" fill="#0087af"/>
<rect x="918.0" y="456.0" width="144.0" height="19.0" fill="#af0000"/>
<rect x="1062.0" y="456.0" width="18.0" height="19.0" fill="#ffffff"/>
<rect x="0.0" y="475.0" width="405.0" height="19.0" fill="#005faf"/>
<rect x="405.0" y="475.0" width="288.0" height="19.0" fill="#af5f00"/>
<rect x="693.0" y="475.0" width="225.0" height="19.0" fill="#0087af"/>
<rect x="918.0" y="475.0" width="144.0" height="19.0" fill="#af0000"/>
<rect x="1062.0" y="475.0" width="18.0" height="19.0" fill="#ffffff"/>
<rect x="0.0" y="494.0" width="405.0" height="19.0" fill="#005faf"/>
<rect x="405.0" y="494.0" width="288.0" height="19.0" fill="#af5f00"/>
<rect x="693.0" y="494.0" width="225.0" height="19.0" fill="#0087af"/>
<rect x="918.0" y="494.0" width="144.0" height="19.0" fill="#af0000"/>
<rect x="1062.0" y="494.0" width="18.0" height="19.0" fill="#ffffff"/>
<rect x="0.0" y="513.0" width="81.0" height="19.0" fill="#e5e5e5"/>
<text x="0.0" y="527.0" fill="#000000" xml:space="preserve" textLength="81.0" lengthAdjust="spacingAndGlyphs"> t / Esc </text>
<text x="81.0" y="527.0" fill="#ffffff" xml:space="preserve" textLength="144.0" lengthAdjust="spacingAndGlyphs"> back to list   </text>
<text x="225.0" y="527.0" fill="#ffffff" font-weight="bold" xml:space="preserve" textLength="63.0" lengthAdjust="spacingAndGlyphs">Color: </text>
<text x="288.0" y="527.0" fill="#005faf" xml:space="preserve" textLength="9.0" lengthAdjust="spacingAndGlyphs">█</text>
<text x="297.0" y="527.0" fill="#af5f00" xml:space="preserve" textLength="9.0" lengthAdjust="spacingAndGlyphs">█</text>
<text x="306.0" y="527.0" fill="#00875f" xml:space="preserve" textLength="9.0" lengthAdjust="spacingAndGlyphs">█</text>
<text x="315.0" y="527.0" fill="#870087" xml:space="preserve" textLength="9.0" lengthAdjust="spacingAndGlyphs">█</text>
<text x="324.0" y="527.0" fill="#ffffff" xml:space="preserve" textLength="225.0" lengthAdjust="spacingAndGlyphs"> folders (each its own)  </text>
<text x="549.0" y="527.0" fill="#cd00cd" xml:space="preserve" textLength="18.0" lengthAdjust="spacingAndGlyphs">██</text>
<text x="567.0" y="527.0" fill="#ffffff" xml:space="preserve" textLength="72.0" lengthAdjust="spacingAndGlyphs"> Video  </text>
<text x="639.0" y="527.0" fill="#ff00ff" xml:space="preserve" textLength="18.0" lengthAdjust="spacingAndGlyphs">██</text>
<text x="657.0" y="527.0" fill="#ffffff" xml:space="preserve" textLength="72.0" lengthAdjust="spacingAndGlyphs"> Audio  </text>
<text x="729.0" y="527.0" fill="#5c5cff" xml:space="preserve" textLength="18.0" lengthAdjust="spacingAndGlyphs">██</text>
<text x="747.0" y="527.0" fill="#ffffff" xml:space="preserve" textLength="81.0" lengthAdjust="spacingAndGlyphs"> Images  </text>
<text x="828.0" y="527.0" fill="#ffff00" xml:space="preserve" textLength="18.0" lengthAdjust="spacingAndGlyphs">██</text>
<text x="846.0" y="527.0" fill="#ffffff" xml:space="preserve" textLength="225.0" lengthAdjust="spacingAndGlyphs"> Archives / disk images  </text>
<text x="1071.0" y="527.0" fill="#00ff00" xml:space="preserve" textLength="9.0" lengthAdjust="spacingAndGlyphs">█</text>
<text x="0.0" y="546.0" fill="#e5e5e5" xml:space="preserve" textLength="216.0" lengthAdjust="spacingAndGlyphs">179 items scanned, 0.0 s</text>
<rect x="0.0" y="551.0" width="27.0" height="19.0" fill="#e5e5e5"/>
<text x="0.0" y="565.0" fill="#000000" xml:space="preserve" textLength="27.0" lengthAdjust="spacingAndGlyphs"> ? </text>
<text x="27.0" y="565.0" fill="#cdd6f4" xml:space="preserve" textLength="63.0" lengthAdjust="spacingAndGlyphs"> help  </text>
<rect x="90.0" y="551.0" width="54.0" height="19.0" fill="#e5e5e5"/>
<text x="90.0" y="565.0" fill="#000000" xml:space="preserve" textLength="54.0" lengthAdjust="spacingAndGlyphs"> ←↑↓→ </text>
<text x="144.0" y="565.0" fill="#cdd6f4" xml:space="preserve" textLength="135.0" lengthAdjust="spacingAndGlyphs"> select block  </text>
<rect x="279.0" y="551.0" width="63.0" height="19.0" fill="#e5e5e5"/>
<text x="279.0" y="565.0" fill="#000000" xml:space="preserve" textLength="63.0" lengthAdjust="spacingAndGlyphs"> Enter </text>
<text x="342.0" y="565.0" fill="#cdd6f4" xml:space="preserve" textLength="63.0" lengthAdjust="spacingAndGlyphs"> open  </text>
<rect x="405.0" y="551.0" width="27.0" height="19.0" fill="#e5e5e5"/>
<text x="405.0" y="565.0" fill="#000000" xml:space="preserve" textLength="27.0" lengthAdjust="spacingAndGlyphs"> ⌫ </text>
<text x="432.0" y="565.0" fill="#cdd6f4" xml:space="preserve" textLength="63.0" lengthAdjust="spacingAndGlyphs"> back  </text>
<rect x="495.0" y="551.0" width="27.0" height="19.0" fill="#e5e5e5"/>
<text x="495.0" y="565.0" fill="#000000" xml:space="preserve" textLength="27.0" lengthAdjust="spacingAndGlyphs"> c </text>
<text x="522.0" y="565.0" fill="#cdd6f4" xml:space="preserve" textLength="72.0" lengthAdjust="spacingAndGlyphs"> color  </text>
<rect x="594.0" y="551.0" width="63.0" height="19.0" fill="#e5e5e5"/>
<text x="594.0" y="565.0" fill="#000000" xml:space="preserve" textLength="63.0" lengthAdjust="spacingAndGlyphs"> t/Esc </text>
<text x="657.0" y="565.0" fill="#cdd6f4" xml:space="preserve" textLength="63.0" lengthAdjust="spacingAndGlyphs"> list  </text>
<rect x="720.0" y="551.0" width="63.0" height="19.0" fill="#e5e5e5"/>
<text x="720.0" y="565.0" fill="#000000" xml:space="preserve" textLength="63.0" lengthAdjust="spacingAndGlyphs"> Space </text>
<text x="783.0" y="565.0" fill="#cdd6f4" xml:space="preserve" textLength="108.0" lengthAdjust="spacingAndGlyphs"> to basket  </text>
<rect x="891.0" y="551.0" width="27.0" height="19.0" fill="#e5e5e5"/>
<text x="891.0" y="565.0" fill="#000000" xml:space="preserve" textLength="27.0" lengthAdjust="spacingAndGlyphs"> x </text>
<text x="918.0" y="565.0" fill="#cdd6f4" xml:space="preserve" textLength="144.0" lengthAdjust="spacingAndGlyphs"> move to trash  </text>
<rect x="1062.0" y="551.0" width="18.0" height="19.0" fill="#e5e5e5"/>
<text x="1062.0" y="565.0" fill="#000000" xml:space="preserve" textLength="18.0" lengthAdjust="spacingAndGlyphs"> S</text>
</g></svg>